<?xml version="1.0" standalone="no"?><!DOCTYPE svg PUBLIC "-//W3C//DTD SVG 1.1//EN" "http://www.w3.org/Graphics/SVG/1.1/DTD/svg11.dtd"><svg t="1748275036815" class="icon" viewBox="0 0 1024 1024" version="1.1" xmlns="http://www.w3.org/2000/svg" p-id="2839" xmlns:xlink="http://www.w3.org/1999/xlink" width="200" height="200"><path d="M159.5 650.3a117.4 157.3 0 1 0 234.8 0 117.4 157.3 0 1 0-234.8 0Z" fill="#FFFFFF" p-id="2840"></path><path d="M621.5 601.5m-290.2 0a290.2 290.2 0 1 0 580.4 0 290.2 290.2 0 1 0-580.4 0Z" fill="#7E64AD" p-id="2841"></path><path d="M755.5 345.5c62 55.8 101 136.7 101 226.6C856.5 740.5 720 877 551.6 877c-7.1 0-14.1-0.3-21.1-0.8 25.9 7.6 53.2 11.7 81.5 11.7 160.3 0 290.2-129.9 290.2-290.2 0-108-59.1-202.2-146.7-252.2z" fill="#685199" p-id="2842"></path><path d="M621.5 905.9c-167.8 0-304.4-136.5-304.4-304.4s136.5-304.4 304.4-304.4 304.4 136.5 304.4 304.4-136.6 304.4-304.4 304.4z m0-580.4c-152.2 0-276 123.8-276 276s123.8 276 276 276 276-123.8 276-276-123.8-276-276-276z" fill="#333333" p-id="2843"></path><path d="M276.9 828.1c-76.1 0-138-79.8-138-177.8s61.9-177.8 138-177.8 138 79.8 138 177.8-61.9 177.8-138 177.8z m0-314.5c-53.4 0-96.9 61.3-96.9 136.7S223.5 787 276.9 787s96.9-61.3 96.9-136.7-43.5-136.7-96.9-136.7z" fill="#333333" p-id="2844"></path><path d="M356.5 650.3a117.4 157.3 0 1 0 234.8 0 117.4 157.3 0 1 0-234.8 0Z" fill="#FFFFFF" p-id="2845"></path><path d="M473.9 828.1c-76.1 0-138-79.8-138-177.8s61.9-177.8 138-177.8 138 79.8 138 177.8-61.9 177.8-138 177.8z m0-314.5c-53.4 0-96.9 61.3-96.9 136.7S420.5 787 473.9 787s96.9-61.3 96.9-136.7-43.5-136.7-96.9-136.7z" fill="#333333" p-id="2846"></path><path d="M280.3 627.5a96.8 145.9 0 1 0 193.6 0 96.8 145.9 0 1 0-193.6 0Z" fill="#FFFFFF" p-id="2847"></path><path d="M377.1 791.4c-64.4 0-114.8-72-114.8-163.8 0-91.9 50.4-163.8 114.8-163.8 64.3 0 114.8 72 114.8 163.8 0 91.8-50.4 163.8-114.8 163.8z m0-291.7c-42.7 0-78.8 58.6-78.8 127.9s36.1 127.9 78.8 127.9c42.7 0 78.8-58.6 78.8-127.9s-36.1-127.9-78.8-127.9z" fill="#333333" p-id="2848"></path><path d="M109.9 653.6c1.7 146.2 120.7 264.3 267.3 264.3 146.6 0 265.6-118 267.3-264.3H109.9z" fill="#7E64AD" p-id="2849"></path><path d="M597 656.4c-2.9 116.9-75.5 216.5-177.9 258.6 120.4-25.1 211-131.1 212.5-258.6H597z" fill="#685199" p-id="2850"></path><path d="M377.1 933c-74.9 0-145.4-29-198.7-81.7-53.2-52.6-82.9-122.8-83.8-197.6 0-4 1.5-7.9 4.4-10.8 2.8-2.9 6.7-4.5 10.8-4.5h534.5c4 0 7.9 1.6 10.8 4.5 2.8 2.9 4.4 6.8 4.4 10.8-0.9 74.8-30.6 144.9-83.8 197.6C522.6 904 452 933 377.1 933zM125.7 668.7c9.4 130.3 119.2 233.9 251.5 233.9s242-103.6 251.5-233.9h-503z" fill="#333333" p-id="2851"></path><path d="M402.9 317.8a108.1 83.4 0 1 0 216.2 0 108.1 83.4 0 1 0-216.2 0Z" fill="#40AF7A" p-id="2852"></path><path d="M573.3 367.8c-78.5 5.9-145.5-34.8-150.3-91.1-5.1 10.7-7.6 22.3-6.7 34.3 3.4 45.9 54.5 79.5 114 75 23.7-1.8 45.2-9.4 62.3-20.7-6.3 1.1-12.7 2-19.3 2.5z" fill="#229456" p-id="2853"></path><path d="M511 420.8c-70.4 0-127.7-46.2-127.7-103s57.3-103 127.7-103 127.7 46.2 127.7 103-57.3 103-127.7 103z m0-166.7c-48.7 0-88.4 28.6-88.4 63.7s39.6 63.7 88.4 63.7 88.4-28.6 88.4-63.7-39.7-63.7-88.4-63.7z" fill="#333333" p-id="2854"></path><path d="M626.5 317.8a108.1 83.4 0 1 0 216.2 0 108.1 83.4 0 1 0-216.2 0Z" fill="#40AF7A" p-id="2855"></path><path d="M674.2 367.8c78.5 5.9 145.5-34.8 150.3-91.1 5.1 10.7 7.6 22.3 6.7 34.3-3.4 45.9-54.5 79.5-114 75-23.7-1.8-45.2-9.4-62.3-20.7 6.3 1.1 12.7 2 19.3 2.5z" fill="#229456" p-id="2856"></path><path d="M734.6 420.8c-70.4 0-127.7-46.2-127.7-103s57.3-103 127.7-103 127.7 46.2 127.7 103-57.3 103-127.7 103z m0-166.7c-48.7 0-88.4 28.6-88.4 63.7s39.6 63.7 88.4 63.7 88.4-28.6 88.4-63.7-39.7-63.7-88.4-63.7z" fill="#333333" p-id="2857"></path><path d="M519.1 317.8a102.4 88.1 0 1 0 204.8 0 102.4 88.1 0 1 0-204.8 0Z" fill="#40AF7A" p-id="2858"></path><path d="M622.7 361.6c-42.3 0-79.5-18.7-101.2-46.9 7.7 42.1 50 74.4 101.2 74.4s93.5-32.2 101.2-74.4c-21.6 28.2-58.9 46.9-101.2 46.9z" fill="#229456" p-id="2859"></path><path d="M621.5 425.6c-67.3 0-122.1-48.4-122.1-107.8S554.2 210 621.5 210s122.1 48.4 122.1 107.8-54.8 107.8-122.1 107.8z m0-176.2c-45.6 0-82.7 30.7-82.7 68.4s37.1 68.4 82.7 68.4 82.7-30.7 82.7-68.4-37.1-68.4-82.7-68.4z" fill="#333333" p-id="2860"></path><path d="M622.8 248.6c-8.2 0-14.9-6.5-15.1-14.8-0.1-4.2-2-103.9 42.8-146 6.1-5.7 15.7-5.4 21.4 0.7 5.7 6.1 5.4 15.7-0.7 21.4-29.1 27.3-33.9 98.1-33.3 123.1 0.2 8.4-6.4 15.3-14.8 15.5 0 0.1-0.1 0.1-0.3 0.1z" fill="#333333" p-id="2861"></path><path d="M227.9 824.6c-0.5 0-1 0-1.5-0.1-4-0.6-40.3-8.3-68.6-83.7-1.8-4.9 0.6-10.4 5.5-12.2 4.9-1.8 10.4 0.6 12.2 5.5 24.3 64.9 53.7 71.6 54 71.7 5.2 0.8 8.6 5.6 7.8 10.8-0.7 4.7-4.8 8-9.4 8z" fill="#FFFFFF" p-id="2862"></path><path d="M151.9 701.5m-11.4 0a11.4 11.4 0 1 0 22.8 0 11.4 11.4 0 1 0-22.8 0Z" fill="#FFFFFF" p-id="2863"></path></svg>