<?xml version="1.0" standalone="no"?><!DOCTYPE svg PUBLIC "-//W3C//DTD SVG 1.1//EN" "http://www.w3.org/Graphics/SVG/1.1/DTD/svg11.dtd"><svg t="1748275038659" class="icon" viewBox="0 0 1024 1024" version="1.1" xmlns="http://www.w3.org/2000/svg" p-id="3020" xmlns:xlink="http://www.w3.org/1999/xlink" width="200" height="200"><path d="M541.5 334.1c-22.4-24.7-32.9-66.3-5.8-103.5 36.1-49.6 160.2-56.9 216.4-55.6-3.3 31.8-21.9 143.1-122.9 181.1-37.1 14.1-69.6-2.1-87.7-22z" fill="#36B474" p-id="3021"></path><path d="M530.1 319.2c2.1 2.9 4.3 5.7 6.6 8.3 18.1 19.9 50.7 36.1 87.8 22.1 98-37 118.4-142.8 122.5-177.9L530.1 319.2z" fill="#229456" p-id="3022"></path><path d="M505.5 223.6c-25 34.4-25.3 71.1-12.9 100-10.6 5.6 33.5-4.4 15.1 0-7.2 1.7-12.5 7.9-12.1 13.9 0.1 1.2 0.5 2.4 0.9 3.5 2 3.8 7 5.4 12.5 4.2 22.4-5.4-18.8 3.1-6.5-3.4 2.5 3.5 5.2 7 8 10.1 29.1 31.9 73 42.1 114.7 26.2 57.4-21.8 100.5-66.1 124.7-128.2 17.8-45.7 19.1-84.7 19.2-86.3 0.1-4.9-3.6-8.7-9.2-9-7.9-0.3-197.5-9-254.4 69z m43.9 98.6c-18.6-20.5-27.3-54.9-4.8-85.7 30-41 132.8-47.1 179.3-46-2.7 26.4-18.2 118.6-101.8 150.2-30.6 11.3-57.6-2.1-72.7-18.5z" fill="#333333" p-id="3023"></path><path d="M509.4 342.3c204.7-38.4 321.9 29 341.5 199.8 21.5 186.6-94.2 356.4-317.7 410.7L516 955c-24.4 0.9-43.5 0-48.1-0.6-60.5-8-104.1-26.6-120.3-66-133.9-79-195.9-206.5-179.8-346.3 19.7-170.8 136.9-238.2 341.6-199.8z" fill="#FFB0B0" p-id="3024"></path><path d="M819.7 529.3c-8.5-75.5-35.5-131.1-79.9-166.7 15.6 31.7 25.9 69.3 30.9 112.7C794.8 688.6 665 882.7 414.3 945.1c7.2 1.4 14.7 2.7 22.5 3.7 4.6 0.6 23.7 1.5 48.1 0.6l17.2-2.3c223.3-55.2 339.1-228 317.6-417.8z" fill="#D18282" p-id="3025"></path><path d="M375.3 589.1c-0.3 9.8-8.5 17.6-18.4 17.3-9.8-0.3-17.6-8.5-17.3-18.4 5-158.6 73.1-246.9 202.1-258.3 9.8-0.8 18.3 6.5 19.2 16.2 0.9 9.7-6.3 18.4-16 19.3-109.4 9.7-165.2 82.1-169.6 223.9z m0 0" fill="#333333" p-id="3026"></path><path d="M815.9 541.7C798.7 389.6 701.2 333.2 513.2 370l-3.4 0.7-3.4-0.7c-187.9-36.8-285.5 19.6-302.7 171.7-14.8 130.4 42.5 248 167.9 320.9 0 0 4.9 2.1 5.9 3.5 1.1 1.3 2.1 6.5 2.1 6.5 9.1 28.4 39.4 49 88.8 49 4.7 0 25.4 2.3 58.6-1.1 204.5-51.4 308.4-207 288.9-378.8zM509.8 334.4c204.7-39.1 321.9 29.5 341.5 203.3 21.5 189.9-94.2 362.7-317.7 417.9l-17.2 2.3c-24.4 0.9-43.5 0-48.1-0.6-60.5-8.1-104.1-27.1-120.3-67.2C214.1 809.7 152.2 680 168.3 537.7 188 363.9 305.1 295.3 509.8 334.4z" fill="#333333" p-id="3027"></path><path d="M505.2 371.1c-9.2 0-17.3-6.7-18.7-16.1-1.2-8.2-29.1-202.5 91.2-289.5 8.5-6.1 20.3-4.2 26.5 4.3 6.1 8.5 4.2 20.3-4.3 26.5-101.5 73.4-76.2 251.4-76 253.2 1.5 10.4-5.6 20-15.9 21.6h-2.8z" fill="#333333" p-id="3028"></path></svg>