<?xml version="1.0" standalone="no"?><!DOCTYPE svg PUBLIC "-//W3C//DTD SVG 1.1//EN" "http://www.w3.org/Graphics/SVG/1.1/DTD/svg11.dtd"><svg t="1748275049613" class="icon" viewBox="0 0 1024 1024" version="1.1" xmlns="http://www.w3.org/2000/svg" p-id="4023" xmlns:xlink="http://www.w3.org/1999/xlink" width="200" height="200"><path d="M539.3 147.2l111.1 225.7c1.4 3.6 5 5.8 8.7 5.8l248.8 36.1c9.4 1.4 13 12.3 6.5 18.7L734 609.4c-2.9 2.9-3.6 6.5-2.9 10.1l42.5 248.1c1.4 9.4-7.9 15.9-15.9 11.5L535 762.3c-2.9-1.4-7.2-1.4-10.1 0L302.1 879.1c-7.9 4.3-18-2.9-15.9-11.5l42.5-248.1c0.7-3.6-0.7-7.2-2.9-10.1L145.6 434.2c-6.5-6.5-2.9-17.3 6.5-18.7l248.8-36.1c3.6-0.7 6.5-2.9 8.7-5.8l111.1-225.7c2.8-8.6 14.3-8.6 18.6-0.7z" fill="#FFED92" p-id="4024"></path><path d="M529.2 141.4c4.3 0 7.9 2.2 10.1 6.5l111.1 225.7c1.4 3.6 5 5.8 8.7 5.8l248.8 36.1c9.4 1.4 13 12.3 6.5 18.7L734 609.4c-2.9 2.9-3.6 6.5-2.9 10.1l42.5 248.1c1.4 7.2-4.3 13-10.8 13-1.4 0-3.6-0.7-5-1.4L535 762.3c-1.4-0.7-3.6-1.4-5-1.4s-3.6 0.7-5 1.4L302.1 879.1c-1.4 0.7-3.6 1.4-5 1.4-6.5 0-12.3-5.8-10.8-13l42.5-248.1c0.7-3.6-0.7-7.2-2.9-10.1L145.6 434.2c-6.5-6.5-2.9-17.3 6.5-18.7l248.8-36.1c3.6-0.7 6.5-2.9 8.7-5.8l111.1-225.7c0.6-4.3 4.9-6.5 8.5-6.5m0-43.2c-20.9 0-39.7 11.5-49 30.3L377.1 338.3l-232.2 33.9c-20.9 2.9-37.5 17.3-44 36.8-6.5 20.2-1.4 41.8 13.7 56.2l168 163.7-39.7 230.8c-2.9 15.9 1.4 31.7 12.3 44 10.1 12.3 25.2 19.5 41.8 19.5 8.7 0 17.3-2.2 25.2-6.5l207.7-108.9 207.7 108.9c7.9 4.3 16.6 6.5 25.2 6.5 15.9 0 31-7.2 41.8-19.5 10.1-12.3 14.4-28.1 12.3-44l-39.7-230.8 166.6-163.7c15.1-14.4 20.2-36.1 13.7-55.5-6.5-20.2-23.1-33.9-44-36.8L681.4 339 578.3 128.4c-9.4-18.7-28.2-30.2-49.1-30.2z" fill="#333333" p-id="4025"></path><path d="M830.7 454.4c-2.2-5.8-7.9-8.7-13.7-7.2l-132.7 43.3-96.6-13.7c-1.4 0-2.9-1.4-3.6-2.9l-43.3-87.3v-168c0-6.5-5-10.8-10.8-10.8-5.8 0-10.8 5-10.8 10.8v168l-43.3 87.3c-0.7 1.4-2.2 2.2-3.6 2.9l-96.6 13.7-134.1-44c-5.8-2.2-12.3 1.4-13.7 7.2-2.2 5.8 1.4 12.3 7.2 13.7l134.1 44 69.2 67.8c1.4 1.4 1.4 2.9 1.4 4.3l-15.9 92.3-107.4 146.4c-3.6 5-2.9 12.3 2.2 15.9 2.2 1.4 4.3 2.2 6.5 2.2 3.6 0 6.5-1.4 8.7-4.3l103.8-142.1 89.4-46.9c1.4-0.7 2.9-0.7 4.3 0l88.7 46.2 105.3 144.2c2.2 2.9 5.8 4.3 8.7 4.3 2.2 0 4.3-0.7 6.5-2.2 5-3.6 5.8-10.8 2.2-15.9L634.5 675.8 618.6 582c0-1.4 0-3.6 1.4-4.3l69.2-67.8 133.4-44c6.6 0.8 10.2-5.7 8.1-11.5z" fill="#FFFAE6" p-id="4026"></path><path d="M608.6 609c12.3 21.2 6.8 39.1-7.8 47.5-14.6 8.4-32.8 4.1-45-16.9-12.3-21.2-1-62.8-1-62.8s41.6 11 53.8 32.2zM504.9 638.9c-11.4 21.7-29.4 26.6-44.3 18.9-14.9-7.8-21-25.5-9.8-47.1 11.4-21.7 52.5-34.4 52.5-34.4s12.9 40.9 1.6 62.6zM500.7 466c0-23.5 13.2-35.7 29.2-35.7 16.2 0 29.2 12.2 29.2 35.7 0 23.5-29.2 52.6-29.2 52.6s-29.2-29.3-29.2-52.6z" fill="#434D4F" p-id="4027"></path></svg>