<?xml version="1.0" standalone="no"?><!DOCTYPE svg PUBLIC "-//W3C//DTD SVG 1.1//EN" "http://www.w3.org/Graphics/SVG/1.1/DTD/svg11.dtd"><svg t="1748275042417" class="icon" viewBox="0 0 1024 1024" version="1.1" xmlns="http://www.w3.org/2000/svg" p-id="3354" xmlns:xlink="http://www.w3.org/1999/xlink" width="200" height="200"><path d="M399.7 569.7m-24.7 0a24.7 24.7 0 1 0 49.4 0 24.7 24.7 0 1 0-49.4 0Z" fill="#FFFFFF" p-id="3355"></path><path d="M635.3 761.5c-119.8 106.2-383.8 186.3-476.9 81.3s5.4-358.3 125.2-464.5 294.2-94.8 387.3 10.2 84.2 266.8-35.6 373z" fill="#E34261" p-id="3356"></path><path d="M295.2 914c-67.1 0-120-19.2-153.2-56.7C37.1 739 143.9 472.9 269.1 361.9 394.9 250.3 582.6 255.8 687.4 374c49.7 56.1 73.7 128 67.5 202.4-6.3 75.5-43.6 147.1-105 201.5-63.3 56.1-162.3 103.9-258.4 124.9-34.5 7.5-66.8 11.2-96.3 11.2z m182.3-588.6c-62.7 0-127.1 23-179.3 69.3C179.3 500.1 95 738.1 174.8 828.2c36.3 41 111.9 52.5 207.4 31.7 87.8-19.1 181.5-64.2 238.6-114.8 52.9-46.9 85-108.1 90.3-172.3 5.2-62.4-14.9-122.7-56.6-169.7-45.7-51.7-110.3-77.7-177-77.7z" fill="#333333" p-id="3357"></path><path d="M641.8 373s58.3-161.2-82.8-214.1c0 0 3 143.2-30.9 150.1 0 0-98.9-74.9-156.1-61.2 0 0 35.2 160.9 143.6 186.7 0 0-79.9 73.5-64.1 132.7 0 0 95.9 21.8 171.5-34.7 0 0 67.2 81.8 173.7 99.1 0 0 15.9-66.1-51.2-145.7 0 0 81-20.3 93.1-58.8 0.1 0.2-41.7-50.2-196.8-54.1z" fill="#3BB677" p-id="3358"></path><path d="M784.4 662.5c-1.4-0.1-2.7-0.2-4.1-0.5-84-17.9-142.8-71.4-168.8-99.4-82.1 42.9-170.4 19.1-174.4 18-9.1-2.5-16-9.9-18.1-19.2-10.5-48.6 23.8-97.5 50.7-127-90-55-113.8-190.6-114.9-197.1-2.3-13.7 6.8-26.7 20.4-29.2 52.5-9.9 122.2 35 155.5 59.7 7.2-19.1 12.6-78.2 13.8-115.2 0.3-8.4 4.7-16.2 11.8-20.7 7.1-4.6 16-5.2 23.7-1.9 47.1 20.3 79.5 71 94.7 111.3 15 40 10 80.4 3 107.7 135.9 16.6 177.5 66.2 181.2 72.2 4.2 6.7 5 14.9 2.2 22.3-11.3 30.6-52.3 49.4-79.5 60 45.9 78 29.2 138.2 28.3 140.9-3.1 11.3-13.9 18.7-25.5 18.1zM618.2 504.2c7.4 0.4 14.5 3.9 19.2 10.2 0.5 0.6 47.6 62.5 125.3 89.7-1.4-22.6-9.7-58.1-41.5-99.7-5.3-6.9-6.6-16-3.7-24.2 3-8.2 9.9-14.2 18.4-16.1 19.2-4.4 52.8-14.7 67.4-26.4-19.3-13.2-70.6-34.5-162-41.2-8.4-0.6-16-5.4-20.2-12.6-4.3-7.3-4.6-16.1-1-23.7 0.5-1.1 24.6-53.9 6.6-101.4-6.4-16.9-18.7-51.5-34.6-63.6-0.9 7.8-1 36.1-2.4 44.5-5.8 34.8-17.7 81.6-53.1 87.1-7.3 1.2-14.6-0.9-20.3-5.6-27-22.4-70.3-50.3-103.5-60.2 13.3 44.8 45 122.5 108.4 140.9 9.1 2.6 15.9 10 17.9 19.3 2 9.2-1.4 18.8-8.6 24.8-16 13.4-56.2 54.4-61.9 88.7 28.4 4 85.6 6.3 133.9-26.3 4.9-3.1 10.4-4.4 15.7-4.2z m198.1-55.4z" fill="#333333" p-id="3359"></path><path d="M611.1 410.4c-6.7 0-13.3-2.6-18.3-7.8-9.8-10.1-9.5-26.3 0.6-36 5.1-5 127.6-121.3 303-128.6 13.9-0.6 25.9 10.3 26.5 24.4 0.6 14.1-10.3 25.9-24.4 26.5-156.2 6.4-268.5 113.2-269.7 114.3-4.9 4.8-11.3 7.2-17.7 7.2z" fill="#333333" p-id="3360"></path><path d="M343.2 524c13.6-12.7 27.8-11.6 36.5-2.3s8.6 23.6-4.9 36.2c-13.6 12.7-46.3 11.4-46.3 11.4s1.1-32.8 14.7-45.3zM233.1 690.7c13.6-12.7 27.8-11.6 36.5-2.3 8.7 9.4 8.6 23.6-4.9 36.2-13.6 12.7-46.3 11.4-46.3 11.4s1.2-32.8 14.7-45.3zM381 640c13.6-12.7 27.8-11.6 36.5-2.3s8.6 23.6-4.9 36.2c-13.6 12.7-46.3 11.4-46.3 11.4s1.1-32.8 14.7-45.3zM516.5 682.9c13.6-12.7 27.8-11.6 36.5-2.3 8.7 9.4 8.6 23.6-4.9 36.2-13.6 12.7-46.3 11.4-46.3 11.4s1.2-32.8 14.7-45.3zM371.4 776.2c13.6-12.7 27.8-11.6 36.5-2.3s8.6 23.6-4.9 36.2c-13.6 12.7-46.3 11.4-46.3 11.4s1.2-32.8 14.7-45.3z" fill="#434D4F" p-id="3361"></path><path d="M326 435.6m-20.7 0a20.7 20.7 0 1 0 41.4 0 20.7 20.7 0 1 0-41.4 0Z" fill="#FFFFFF" p-id="3362"></path><path d="M195.7 649.4c-1.6 0-3.3-0.3-5-0.8-8.1-2.7-12.5-11.6-9.8-19.7 13.4-39.8 30.7-76.1 50-105.1 11.4-17.2 24.5-33.2 38.8-47.6 6-6.1 15.9-6.1 22-0.1s6.1 15.9 0.1 22a284.9 284.9 0 0 0-35 42.9c-17.8 26.7-33.9 60.5-46.5 97.8-2.1 6.5-8.1 10.6-14.6 10.6z" fill="#FFFFFF" p-id="3363"></path></svg>