<?xml version="1.0" standalone="no"?><!DOCTYPE svg PUBLIC "-//W3C//DTD SVG 1.1//EN" "http://www.w3.org/Graphics/SVG/1.1/DTD/svg11.dtd"><svg t="1748275055458" class="icon" viewBox="0 0 1024 1024" version="1.1" xmlns="http://www.w3.org/2000/svg" p-id="4534" xmlns:xlink="http://www.w3.org/1999/xlink" width="200" height="200"><path d="M849.8 608l18.3 52.6-43.9 34.4 5.1 55.6-50.5 22.7-8 54.8-54.9 10.3-21.2 51.1-55.6-4.3-33.6 43.8-51.9-19-44.6 32.9-44.6-32.9-30 10.3-24.2 8.7-21.9-29.2-11-15.4-55.6 2.9-19-51.9-54.1-13.1-4.4-55.6-48.2-27.1 10.2-54.8-40.2-38.1 23.4-50.4-30-46.8 35.1-43.2-18.3-52.6 43.9-34.4-5.1-55.6 50.4-22.7 8.1-54.8 54.8-10.2 21.2-51.2 55.6 4.4 33.7-43.9 51.9 19 44.6-32.9 44.6 32.9 11-3.7 22.6-8 18.3-6.6 12.5 16.1 7.3 9.5 13.9 19 55.6-2.9 19 51.9 54.1 13.2 4.4 55.6 48.2 27-10.2 54.9 40.2 38-23.4 50.5 30 46.8z" fill="#D1B828" p-id="4535"></path><path d="M649.9 194.7c7.2-16.4 17.7-30.1 32.1-41.2 22.3-17 49.1-24.2 76.6-20.3 10.5 1.3 20.9-5.9 22.3-17 1.3-10.5-5.9-20.9-17-22.3-38-5.2-75.3 4.6-105.4 28.1-20.9 15.7-36.6 37.3-46.5 60.9l22.9-8.5 15 20.3z" fill="#8C5D00" p-id="4536"></path><path d="M653.1 223.1l-23.4-31.5-43.8 16.3 12.7-30.5c11.3-27.1 28.9-50.2 51-66.7 32.9-25.7 74.1-36.7 116-31 8.8 1.1 16.8 5.6 22.3 12.6 5.7 7.2 8.3 16.6 7.1 25.6-1.1 8.9-5.6 16.8-12.7 22.4-7.2 5.7-16.6 8.3-25.7 7.1h-0.3c-23.7-3.4-46.4 2.7-65.8 17.5-12.2 9.4-21.3 21.1-27.6 35.6l-9.8 22.6z m-11.5-63.7l6.6 9c6.9-10 15.2-18.7 24.9-26.2 25.3-19.3 56.2-27.5 87.2-23.2 1.5 0.2 3.1-0.3 4.3-1.2 1.1-0.8 1.7-1.9 1.8-3.2v-0.1c0.2-1.5-0.3-3.1-1.2-4.4-0.8-1.1-1.9-1.7-3.2-1.8h-0.3c-34.2-4.7-67.7 4.2-94.5 25.2l-0.2 0.2c-9.5 7-18.1 15.8-25.4 25.7z" fill="#333333" p-id="4537"></path><path d="M638.8 244.5l-6.5-7.9-11.1-15.1-15.7 5.9-20.9 7.2-77.9 352.1-104.9 273.6 20.3 26.2 20.9-7.2 64.8-291.9 131-342.9z" fill="#FFEDC5" p-id="4538"></path><path d="M509.2 962.4c-3 0-5.9-0.9-8.4-2.7l-23.6-17c-0.1 0-0.1-0.1-0.2-0.1l-16.7-12.4-47.7 17c-5.9 2.1-12.4 0.2-16.2-4.8l-30.8-39.9-50.1 2.3c-6.3 0.3-12-3.5-14.2-9.4l-17-46.4-48.7-11.3c-6.2-1.4-10.7-6.7-11.1-13l-3.4-49.1-42.9-23.7c-5.4-3-8.3-9.1-7.2-15.2l9.1-48.7-35-33.9c-4.4-4.3-5.6-10.9-3-16.5l12.4-26 8.5-19-25.9-40.6c-3.3-5.2-2.9-12 1-16.8l30.3-37-15.8-46.2c-2.1-6.1 0.2-12.9 5.5-16.5l22.6-15.5 15.6-12-4.5-48.4c-0.6-6.1 2.8-11.8 8.3-14.4l43.9-20.3 6.8-48.5c0.9-6.1 5.5-11 11.5-12.1l27.5-5.2c0.1 0 0.3 0 0.4-0.1l20.3-3.3 19.2-45.1c2.4-5.6 8.1-9.1 14.2-8.7l48.6 3.4 30.6-39.7c3.8-5 10.4-6.9 16.3-4.7l46.4 17 16.7-12.4c0.1 0 0.1-0.1 0.2-0.1l23.6-17c5-3.6 11.8-3.6 16.8 0l23.6 17c0.1 0 0.1 0.1 0.2 0.1l16.7 12.4 20.3-7.2c0.1 0 0.2-0.1 0.3-0.1l3.7-1.2 22.7-8.4c6-2.2 12.8-0.2 16.6 5l14.4 19.6c0.1 0.2 0.3 0.3 0.4 0.5l2.4 3.7 12.9 17.7 49.9-2.3c6.3-0.3 12 3.5 14.2 9.4l17 46.4 48.7 11.3c6.2 1.4 10.7 6.7 11.1 13l3.4 49.1 42.9 23.7c5.4 3 8.3 9.1 7.2 15.2l-9.1 48.7 35 33.9c4.4 4.2 5.6 10.8 3.1 16.4l-20.3 43.9 25.9 40.5c3.3 5.2 2.9 12-1 16.8L875 610.4l6.2 16.5c0.1 0.1 0.1 0.3 0.2 0.4l9.2 26.8c2 5.8 0 12.3-4.9 16.1l-38.2 29.2 4.5 48.4c0.6 6.1-2.8 11.8-8.3 14.4l-43.9 20.3L793 831c-0.9 6.1-5.5 11-11.5 12.1l-27.5 5.2-20.6 3.8-19.2 45.3c-2.4 5.6-8.1 9.1-14.2 8.7l-48.6-3.4-30.6 39.7c-3.8 5-10.4 6.9-16.3 4.7l-46.4-17-16.7 12.4c-0.1 0-0.1 0.1-0.2 0.1l-23.6 17c-2.5 1.9-5.5 2.8-8.4 2.8z m-15.1-43l15.1 10.9 15.1-10.9 22.8-17c3.9-2.9 9-3.6 13.5-2l43.8 16 28.9-37.5c2.9-3.8 7.6-5.9 12.4-5.6l46.1 3.2 18.2-42.9c1.9-4.4 5.9-7.6 10.6-8.5l28.1-5.2 17.3-3.3 6.4-46.1c0.7-4.8 3.8-9 8.2-11.1l41.8-19.3-4.3-46.2c-0.5-4.9 1.6-9.7 5.6-12.8l36.3-27.8-5.7-16.8-9.1-24c-1.8-4.8-0.9-10.2 2.3-14.2l28.7-35.1-24.5-38.3c-2.6-4.1-3-9.3-0.9-13.8l19.3-41.8-33.2-32.2c-3.5-3.4-5-8.2-4.1-13l8.6-46.1-40.7-22.5c-4.3-2.4-7-6.7-7.4-11.6l-3.2-46.3-45.9-10.7c-4.7-1.1-8.6-4.5-10.2-9.1L718 234l-47.1 2.1c-4.8 0.2-9.4-2-12.3-5.9L640.9 206c-0.1-0.2-0.2-0.3-0.3-0.5l-2.4-3.7-7.8-10.6-12.7 4.7c-0.2 0.1-0.3 0.1-0.5 0.2l-3.8 1.3-27.3 9.8c-4.5 1.6-9.5 0.9-13.4-2l-22.8-17-15.1-10.9-15.1 10.9-22.8 17c-3.9 2.9-9 3.6-13.5 2l-43.8-16-29 37.8c-2.9 3.8-7.6 5.9-12.4 5.6l-46.1-3.2-18.2 42.9c-1.9 4.5-6.1 7.8-10.9 8.6l-28 4.6-17.2 3.3-6.4 46.1c-0.7 4.8-3.8 9-8.2 11.1l-41.8 19.3 4.3 46.2c0.5 4.9-1.6 9.7-5.6 12.7l-22.3 17c-0.2 0.2-0.4 0.3-0.6 0.4l-13.9 9.5 14.8 43.3c1.6 4.7 0.7 9.9-2.5 13.7l-28.7 35.1 24.5 38.3c2.6 4.1 3 9.2 1 13.6l-11.8 26.2c0 0.1-0.1 0.2-0.1 0.3l-8 16.9 33.2 32.1c3.5 3.4 5 8.2 4.1 13l-8.6 46.1 40.7 22.5c4.3 2.4 7 6.7 7.4 11.6l3.2 46.3 45.9 10.7c4.7 1.1 8.6 4.5 10.2 9.1l16 43.8 47.1-2.1c4.7-0.2 9.2 1.9 12 5.6l29 37.5 45.1-16.1c4.5-1.6 9.6-0.9 13.4 2l22.9 16.8z" fill="#333333" p-id="4539"></path><path d="M468.6 315.1C384.8 343.9 315.5 412 288 503c-27.5 91.6-6.5 185.9 47.1 256.5 30.8 39.9 93.6 19.6 95.6-30.1 2.6-57.6 11.8-116.5 29.5-174.7 17.7-58.2 41.9-111.9 71.3-161.7 26.8-42.5-15.1-94.2-62.9-77.9zM697 383.9c-30.8-39.9-93.6-19.6-95.6 30.1-2.6 57.6-11.8 116.5-29.5 174.7-17.7 58.2-41.9 111.9-71.3 161.7-25.5 43.2 16.4 94.2 63.5 77.9 83.8-28.8 153.1-96.9 180.6-187.8 26.9-91.7 6.6-186-47.7-256.6z" fill="#FFE964" p-id="4540"></path><path d="M546.2 845.7c-19.9 0-38.9-8.8-52.2-24.9-18.2-22.3-20.5-52.8-5.8-77.7 29.8-50.3 53.3-103.6 70-158.5 16.4-54.2 26.1-111.8 28.8-171.2 1.1-28.7 19.6-53 46.9-61.7 27.4-8.7 56.6 0.5 74.3 23.5 28.4 37 48.2 80.7 57 126.4 9.1 47 6.7 96.4-6.9 142.9v0.1c-27.9 92.3-98.8 166-189.7 197.3-7.2 2.5-14.9 3.8-22.4 3.8z m108.7-468.6c-4.3 0-8.4 0.7-12.1 1.9-12.5 4-26.2 15.4-27 35.5-2.8 61.9-12.9 121.9-30.1 178.3C568.4 650 544 705.4 513 757.7c-10.3 17.5-5.1 34.6 3.3 44.9 8.3 10.2 24.1 18.7 43.1 12.1 82.2-28.3 146.3-94.9 171.6-178.4 24.9-85 8.3-173.8-45.4-243.7-8.8-11.4-20.3-15.5-30.7-15.5zM377.3 795c-20.6 0-40.3-9.5-53.6-26.7l-0.1-0.1c-28.2-37.2-47.8-80.9-56.7-126.4-9.3-47.9-6.9-96 7.2-143 27.9-92.3 98.8-166 189.7-197.3 27.9-9.5 57.6-0.9 75.7 22 17.7 22.4 19.3 52.6 4.1 77-29.6 50.2-53.1 103.5-69.8 158.3-16.4 54.2-26.1 111.8-28.8 171.3-1.1 28.7-19.6 53-46.9 61.7-6.9 2.2-13.9 3.2-20.8 3.2z m-30.8-44.2c12.4 16.1 30.3 17.6 42.8 13.6 12.5-4 26.2-15.4 27-35.5 2.8-61.9 12.9-121.9 30.1-178.3 17.3-57.1 41.8-112.6 72.7-164.8l0.2-0.3c10.7-16.9 5.9-33.8-2.2-44-8.3-10.5-24.2-19.3-43.8-12.6-82.2 28.3-146.3 94.9-171.5 178.4-24.9 82.7-8.2 173.8 44.7 243.5z" fill="#333333" p-id="4541"></path><path d="M713.3 597.6c-0.4 0-0.8 0-1.2-0.1-5.5-0.7-9.4-5.7-8.8-11.2 8.6-69.9-25.1-121-25.5-121.5-3.1-4.6-1.9-10.9 2.7-13.9 4.6-3.1 10.9-1.9 13.9 2.7 1.6 2.3 38.2 57.9 28.7 135.2-0.5 5.1-4.8 8.8-9.8 8.8z" fill="#FFFFFF" p-id="4542"></path><path d="M672.998645 438.124347a11.3 11.3 0 1 0 3.864613-22.267123 11.3 11.3 0 1 0-3.864613 22.267123Z" fill="#FFFFFF" p-id="4543"></path></svg>