<?xml version="1.0" standalone="no"?><!DOCTYPE svg PUBLIC "-//W3C//DTD SVG 1.1//EN" "http://www.w3.org/Graphics/SVG/1.1/DTD/svg11.dtd"><svg t="1748274926735" class="icon" viewBox="0 0 1024 1024" version="1.1" xmlns="http://www.w3.org/2000/svg" p-id="1339" xmlns:xlink="http://www.w3.org/1999/xlink" width="200" height="200"><path d="M732.1 256.1c-7.2-22.3-1.9-52 26.3-68 37.5-21.3 119.1 10 154.7 27.1-11.3 19.4-55.5 85.3-131.2 80.4-27.9-1.7-44-21.5-49.8-39.5z" fill="#36B474" p-id="1340"></path><path d="M653.5 289.7c-9.5 0-18.7-5.2-23.4-14.2-6.5-12.5-1.9-27.9 10.1-34.9 2.6-1.9 43.4-34.5 60.9-182.2 1.7-14.5 14.8-24.8 29.3-23.1 14.5 1.7 24.8 14.8 23.1 29.3-21.2 179.1-76.9 216.4-87.9 222.1-3.9 2-8 3-12.1 3z m-13.4-49.1z m1.1-0.6z m0.1-0.1s0 0.1 0 0c0 0.1 0 0 0 0z m0 0z" fill="" p-id="1341"></path><path d="M171.1 682.7S-53.1 922.9 277.9 938.9c0 0 521.1-21.7 525.8-431.1 1.2-104.1 0.1-292.3-331-271.1-69.2 4.4-233.1 46-285.6 356 0 0.1 4.1 65.7-16 90z" fill="#FAD841" p-id="1342"></path><path d="M769 375.1c0.2 13.6 0.1 26.7 0 38.8-4.2 352.9-326.1 475.5-526 517.7 4.4 0.3 8.8 0.6 13.3 0.8 0 0 521.1-21.7 525.8-431.1 0.5-36.1 0.6-82.2-13.1-126.2z" fill="#F7B033" p-id="1343"></path><path d="M277.8 965.3l-1.2-0.1c-55.6-2.7-100.4-11.8-133.2-27.2-32.2-15.1-54-36.4-65-63.4-16-39.4-7.9-87.4 24.2-142.6 20.4-35.1 43.9-61.5 48.5-66.5 7.7-10.2 11.3-45.4 9.7-71.1l-0.2-3 0.5-3c23.7-140.2 72.5-243.8 145-307.9 59.8-52.9 122.7-67.3 164.9-70 69.3-4.4 129.3-0.1 178.2 12.9 45 12 82.1 31.6 110.3 58.4 72.3 68.6 71.2 167.4 70.5 226.4-1.1 99.6-31.5 185.9-90.2 256.6-46.5 56-110.5 101.8-190.3 136.3C415.7 959 284.5 965 279 965.3h-1.2z m-87.4-264.6c-0.2 0.3-23.5 25.4-42.7 58.7-15.9 27.5-32.3 66.5-20.5 95.6 13.6 33.5 65.7 53.4 150.6 57.7 12.6-0.7 133.2-8.7 252-60.4 162.4-70.7 245.7-186.6 247.5-344.6 0.6-53.7 1.5-134.8-54.1-187.5-47.8-45.3-131.5-64.5-248.9-56.9-34 2.2-84.6 13.8-133.3 56.8-62.8 55.5-105.7 147.8-127.5 274.4 0.8 17.9 1.6 76.4-22.2 105.2l-0.9 1z" fill="" p-id="1344"></path><path d="M729.1 243.3c0.5 2.5 1.1 4.9 1.8 7.2 5.8 18 22 37.8 49.8 39.6 73.5 4.7 117.2-57.2 130-78.5l-181.6 31.7z" fill="#229456" p-id="1345"></path><path d="M741 174.9c-26 14.8-36.8 38.2-37.2 60.3-8.4 0.5-22.4 0.7-35.5-1.8-5.1-1-10.3 1.4-11.8 5.4-0.3 0.8-0.4 1.7-0.4 2.5 0.2 3 2.9 5.5 6.8 6.3 15.9 3 32.2 2.7 42 2.1 0.6 3 1.3 6 2.2 8.8 9.4 28.9 34.6 48.1 65.9 50 43.1 2.7 83.5-13.2 117-46 24.6-24.1 36.8-48.7 37.3-49.7 1.5-3.1 0.2-6.6-3.3-8.4-5-2.5-123.9-63-183-29.5z m-0.4 75.9c-6-18.5-1.6-43.1 21.8-56.3 31.1-17.6 98.7 8.3 128.2 22.5-9.4 16.1-46 70.7-108.7 66.7-23-1.6-36.4-18-41.3-32.9z" fill="" p-id="1346"></path><path d="M388.1 352m-23.1 0a23.1 23.1 0 1 0 46.2 0 23.1 23.1 0 1 0-46.2 0Z" fill="#FFFFFF" p-id="1347"></path><path d="M278.1 604.2c-10.3 0-18.6-8.3-18.7-18.6-1-111.7 71.1-186.6 74.1-189.8 7.2-7.4 19.1-7.5 26.5-0.3 7.4 7.2 7.5 19.1 0.3 26.4-0.2 0.2-16.5 17.1-32.4 45.9-14.4 26.1-31.5 67.6-31.1 117.4 0.1 10.3-8.2 18.8-18.6 18.9 0.1 0.1 0 0.1-0.1 0.1z" fill="#FFFFFF" p-id="1348"></path></svg>