<?xml version="1.0" standalone="no"?><!DOCTYPE svg PUBLIC "-//W3C//DTD SVG 1.1//EN" "http://www.w3.org/Graphics/SVG/1.1/DTD/svg11.dtd"><svg t="1749310865954" class="icon" viewBox="0 0 1024 1024" version="1.1" xmlns="http://www.w3.org/2000/svg" p-id="1922" xmlns:xlink="http://www.w3.org/1999/xlink" width="200" height="200"><path d="M512 0C229.227168 0 0 229.227168 0 512s229.227168 512 512 512S1024 794.772832 1024 512 794.772832 0 512 0z m-60.831546 704.742145c0 34.190805-25.027836 62.180268-55.617413 62.180268s-55.617413-27.975559-55.617413-62.180268V319.257855c0-34.190805 25.027836-62.180268 55.617413-62.180268s55.617413 27.975559 55.617413 62.180268z m225.945741 0c0 34.190805-25.027836 62.180268-55.617413 62.180268s-55.617413-27.975559-55.617413-62.180268V319.257855c0-34.190805 25.027836-62.180268 55.617413-62.180268s55.617413 27.975559 55.617413 62.180268z" p-id="1923" fill="#d81e06"></path></svg>