<?xml version="1.0" standalone="no"?><!DOCTYPE svg PUBLIC "-//W3C//DTD SVG 1.1//EN" "http://www.w3.org/Graphics/SVG/1.1/DTD/svg11.dtd"><svg t="1748275022975" class="icon" viewBox="0 0 1024 1024" version="1.1" xmlns="http://www.w3.org/2000/svg" p-id="1671" xmlns:xlink="http://www.w3.org/1999/xlink" width="200" height="200"><path d="M890 319.8c51.5 81.5-36.5 101.2-36.4 130.2 0.7 120.1-67.6 260.4-218.3 327.3C485 844 325.4 828 236.7 747.3c-21.6-19.7-76.7 36.5-110.8-54.1-27.6-73.3 45.9-74.2 47.5-107.5 5.6-116.6 94.2-245 239.7-309.5 123-54.5 252.1-42.9 343.6 3.3 66.4 33.4 84.5-37.1 133.3 40.3z" fill="#FAD841" p-id="1672"></path><path d="M601.6 723.7c-94.3 45.7-191.8 68.8-282.5 71 90 30.8 206.1 22.8 315.6-30.3 116-56.3 180.1-155.7 200.2-253.9-49.5 84.8-126.3 161.3-233.3 213.2z" fill="#F6AD2C" p-id="1673"></path><path d="M445.5 840.6c-86.6 0-166-25.8-222.1-76.2-2.9-0.1-9.1 0.9-13.4 1.6-26.3 4.3-75.1 12.2-104.3-65.2-23.1-61.4 11.6-87.8 32.3-103.6 4.9-3.7 13.1-10 13.8-12.5 6.3-132.2 107.9-264.2 252.6-328.3 118.3-52.5 253.7-51 362.2 3.8 21.2 10.7 34.4 7.5 49.8 3.9 30.4-7.3 58.4-8.9 92 44.2 44.5 70.5 2.3 109.4-20.3 130.3-4.4 4-10.8 9.9-12.7 12.9 0.1 112.5-60.3 269.9-231.2 345.7-65.8 29-134.3 43.4-198.7 43.4zM222.8 721c9.8 0 19.8 2.2 28.6 10.2 85.1 77.4 235.9 88 375.2 26.2 152.5-67.6 206-207.8 205.4-307.3-0.1-18.9 13.5-31.5 26.7-43.6 22.2-20.4 38.2-35.2 13-75.1-19.7-31.2-26.1-29.7-45.2-25.2-18.6 4.4-44.1 10.5-79.4-7.4-97-49-218.5-50.1-325-2.8C292 353.7 200.9 470.5 195.3 586.7c-1.1 22.3-17.6 34.9-30.9 45-19.2 14.6-29.7 22.6-18 53.7 16.6 44.2 32.6 41.5 56.7 37.6 6-0.9 12.8-2 19.7-2z" fill="#1A1A1A" p-id="1674"></path><path d="M491.8 631.8m-21.7 0a21.7 21.7 0 1 0 43.4 0 21.7 21.7 0 1 0-43.4 0Z" fill="#FBB52D" p-id="1675"></path><path d="M560.7 604.7m-21.7 0a21.7 21.7 0 1 0 43.4 0 21.7 21.7 0 1 0-43.4 0Z" fill="#FBB52D" p-id="1676"></path><path d="M626.8 566.7m-21.7 0a21.7 21.7 0 1 0 43.4 0 21.7 21.7 0 1 0-43.4 0Z" fill="#FBB52D" p-id="1677"></path><path d="M442 721.4m-16.3 0a16.3 16.3 0 1 0 32.6 0 16.3 16.3 0 1 0-32.6 0Z" fill="#FBB52D" p-id="1678"></path><path d="M508 699.6m-19 0a19 19 0 1 0 38 0 19 19 0 1 0-38 0Z" fill="#FBB52D" p-id="1679"></path><path d="M577 669.8m-24.4 0a24.4 24.4 0 1 0 48.8 0 24.4 24.4 0 1 0-48.8 0Z" fill="#FBB52D" p-id="1680"></path><path d="M648.5 634.5m-21.7 0a21.7 21.7 0 1 0 43.4 0 21.7 21.7 0 1 0-43.4 0Z" fill="#FBB52D" p-id="1681"></path><path d="M708.2 583m-19 0a19 19 0 1 0 38 0 19 19 0 1 0-38 0Z" fill="#FBB52D" p-id="1682"></path><path d="M272 485.9c-3.5 0-7-1.1-9.9-3.4-7.1-5.5-8.4-15.7-2.9-22.8 37.7-48.8 87.7-90.7 144.5-121.1 6.8-3.6 13.7-7.1 20.5-10.4 8.1-3.8 17.8-0.4 21.7 7.7 3.9 8.1 0.4 17.8-7.7 21.7-6.4 3-12.9 6.3-19.1 9.7-52.8 28.2-99.1 67.1-134.1 112.3-3.3 4.1-8.1 6.3-13 6.3z" fill="#FFFFFF" p-id="1683"></path><path d="M491.8 317.1m-19 0a19 19 0 1 0 38 0 19 19 0 1 0-38 0Z" fill="#FFFFFF" p-id="1684"></path></svg>