<?xml version="1.0" standalone="no"?><!DOCTYPE svg PUBLIC "-//W3C//DTD SVG 1.1//EN" "http://www.w3.org/Graphics/SVG/1.1/DTD/svg11.dtd"><svg t="1748275027096" class="icon" viewBox="0 0 1024 1024" version="1.1" xmlns="http://www.w3.org/2000/svg" p-id="2007" xmlns:xlink="http://www.w3.org/1999/xlink" width="200" height="200"><path d="M666.5 404.8c0-77.8-57.3-144.2-131.4-156.5v-2.9h-33.2v1c-37.7 2-73 17.2-100.5 43.7-30.6 29.6-47.5 75-47.5 117.2v0.8c0 46.7-18.6 90.1-52.4 122.2-59 56-85.3 126.8-85.3 210.2 0 79.1 25 144.2 83.5 188.4 53 40 125.6 61.2 210.2 61.2s157.4-21.2 210.5-61.2c58.8-44.3 83.9-109.5 83.9-188.4 0-79.2-27.6-151.6-86-209-33.4-32.8-51.8-81.6-51.8-126.7z" fill="#FCD741" p-id="2008"></path><path d="M766.6 626.9c-14.4 112.5-49.2 203.6-124.1 264.6-47.9 39-135.6 65.3-200.2 76.9 0.7 0 25.3-0.4 26-0.4 84.4 5.9 158.5-10.2 214.3-46.4 61.8-40.1 91.4-103.4 96.9-182.1 2.7-39-1.4-76.9-12.9-112.6z" fill="#FBAC1D" p-id="2009"></path><path d="M509 957.1c-128.8 0-260.5-56.8-260.5-216.4 0-74.2 22.8-136.5 75.1-186.2 40.5-38.5 62.8-96.4 62.8-152.3v-0.8c0-33.1 13.2-64.1 37.3-87.4 23.3-22.5 53.6-34.6 85.6-34.6 1.5 0 3 0 4.6 0.1 65.4 2.3 118.6 58.5 118.6 125.3 0 54 22 111.4 61.8 150.6 52.2 51.2 76.1 115.1 76.1 185.4-0.1 159.5-132.2 216.3-261.4 216.3z m156.7-552.3c0-77.8-57.3-144.2-131.4-156.5v-2.9h-33.2v1c-37.7 2-73 17.2-100.5 43.7-30.6 29.6-47.5 75-47.5 117.2v0.8c0 46.7-18.6 90.1-52.4 122.2-59 56-85.3 126.8-85.3 210.2 0 79.1 25 144.2 83.5 188.4 53 40 125.6 61.2 210.2 61.2S666.5 969 719.6 929c58.8-44.3 83.9-109.5 83.9-188.4 0-79.2-27.6-151.6-86-209-33.5-32.9-51.8-81.7-51.8-126.8z" fill="#333333" p-id="2010"></path><path d="M515.5 275.8c-8.1 0-15.5-5.3-17.9-13.5-0.4-1.4-37.9-137.8 87.2-221.5 8.6-5.7 20.1-3.4 25.8 5.1 5.7 8.5 3.4 20.1-5.1 25.8C503.4 140 532.1 247.5 533.4 252c2.8 9.9-3 20.2-12.8 23-1.7 0.5-3.4 0.8-5.1 0.8z" fill="#333333" p-id="2011"></path><path d="M353.1 625c-4.2 0-8.4-1.4-11.9-4.3-7.9-6.6-9-18.3-2.5-26.2 1-1.2 56.3-69.4 70.9-157.6 1.7-10.1 11.3-17 21.4-15.3 10.1 1.7 17 11.3 15.3 21.4-16.3 98.7-76.3 172.2-78.8 175.3-3.7 4.4-9 6.7-14.4 6.7z" fill="#FFFFFF" p-id="2012"></path><path d="M434.1 383.6m-19.5 0a19.5 19.5 0 1 0 39 0 19.5 19.5 0 1 0-39 0Z" fill="#FFFFFF" p-id="2013"></path><path d="M538.3 228.7c-10.7-22.3-9.4-54.1 17.8-74.8 36.1-27.6 125.9-6.6 165.5 6.2-9 21.9-45.8 97-125.6 102.7-29.4 2.3-49.1-16.1-57.7-34.1z" fill="#36B474" p-id="2014"></path><path d="M533.3 215.7c0.9 2.5 1.8 5 2.9 7.3 8.6 18 28.4 36.3 57.7 34.3 77.5-5.6 114.3-76.5 124.6-100.6l-185.2 59z" fill="#229456" p-id="2015"></path><path d="M536 142.6c-25 19.2-33 45.2-30.3 68.3-8.7 1.7 24.8 3.9 10.7 3.2-5.5-0.3-10.6 2.9-11.6 7.3-0.2 0.9-0.2 1.8-0.1 2.7 0.6 3.1 3.8 5.3 8 5.6 17 0.9-14-1.8-3.9-3.8 1.1 3 2.2 6.1 3.6 8.9 13.9 28.8 43 45.3 76 42.8 45.4-3.3 85.3-25.7 115.7-64.8 22.3-28.7 31.5-56.1 31.9-57.3 1.1-3.5-0.7-6.9-4.6-8.3-5.6-1.8-138.4-48.1-195.4-4.6z m10.4 79.3c-8.9-18.5-7.8-44.8 14.7-61.9 30-22.8 104.3-5.4 137.1 5.2-7.5 18.2-38 80.4-104 85.2-24.2 1.6-40.5-13.6-47.8-28.5z" fill="#333333" p-id="2016"></path></svg>