<?xml version="1.0" standalone="no"?><!DOCTYPE svg PUBLIC "-//W3C//DTD SVG 1.1//EN" "http://www.w3.org/Graphics/SVG/1.1/DTD/svg11.dtd"><svg t="1748275052092" class="icon" viewBox="0 0 1024 1024" version="1.1" xmlns="http://www.w3.org/2000/svg" p-id="4184" xmlns:xlink="http://www.w3.org/1999/xlink" width="200" height="200"><path d="M622.1 349.3c-30.1-33.2-44.3-89.1-7.8-139.2 48.5-66.6 215.3-76.4 290.8-74.7-4.4 42.7-29.5 192.3-165.2 243.4-49.8 19-93.5-2.8-117.8-29.5z" fill="#36B474" p-id="4185"></path><path d="M606.8 329.3c2.8 4 5.8 7.7 8.8 11.1 24.3 26.8 68.1 48.5 117.9 29.7 131.7-49.7 159.1-192 164.6-239.1L606.8 329.3z" fill="#229456" p-id="4186"></path><path d="M573.7 200.8c-33.6 46.3-34 95.5-17.3 134.3-14.2 7.5 45-6 20.3 0-9.7 2.3-16.8 10.6-16.3 18.7 0.1 1.6 0.6 3.3 1.3 4.7 2.7 5.1 9.4 7.3 16.8 5.6 30.1-7.3-25.3 4.2-8.7-4.6 3.4 4.8 7 9.4 10.8 13.6 39.1 42.9 98.2 56.5 154.2 35.2C812 379 869.8 319.5 902.3 236c23.9-61.4 25.7-113.8 25.8-115.9 0.2-6.6-4.9-11.7-12.4-12-10.8-0.5-265.5-12.2-342 92.7z m59.1 132.5c-25-27.5-36.7-73.8-6.4-115.2 40.3-55.2 178.4-63.3 241-61.8-3.7 35.4-24.4 159.4-136.8 201.8-41.3 15.3-77.6-2.7-97.8-24.8z" fill="#333333" p-id="4187"></path><path d="M117 477.9c0 155.6 126.1 281.8 281.7 281.9s281.8-126.1 281.9-281.7v-0.2c0-155.6-126.1-281.8-281.8-281.8S117 322.2 117 477.9z" fill="#603900" p-id="4188"></path><path d="M566 887c-168.7 0-306-137.3-306-306s137.3-306 306-306 306 137.3 306 306-137.3 306-306 306z" fill="#333333" p-id="4189"></path><path d="M398.7 776.1c-164.5 0-298.2-133.8-298.2-298.2s133.8-298.2 298.2-298.2S697 313.4 697 477.9 563.2 776.1 398.7 776.1z m0-563.5c-146.3 0-265.3 119-265.3 265.3s119 265.3 265.3 265.3S664 624.2 664 477.9 545 212.6 398.7 212.6z" fill="#333333" p-id="4190"></path><path d="M309.8 581c0 141.5 114.7 256.2 256.2 256.2S822.2 722.4 822.2 581 707.5 324.8 566 324.8 309.8 439.5 309.8 581z" fill="#FFFFFF" p-id="4191"></path><path d="M566 853.6c-150.3 0-272.6-122.3-272.6-272.6S415.7 308.3 566 308.3s272.6 122.3 272.6 272.6S716.3 853.6 566 853.6z m0-512.3c-132.2 0-239.7 107.5-239.7 239.7S433.8 820.7 566 820.7 805.7 713.1 805.7 581 698.2 341.3 566 341.3z" fill="#7A4C01" p-id="4192"></path><path d="M395.2 580.9c0 94.3 76.4 170.8 170.7 170.9s170.8-76.4 170.9-170.7v-0.1c0-94.3-76.4-170.8-170.7-170.8-94.4-0.1-170.9 76.4-170.9 170.7z" fill="#EAEAEA" p-id="4193"></path><path d="M191.9 577.9c-7 0-13.2-4.4-15.5-10.9-2-5.6-47.7-138.5 55.1-252.9 6.1-6.8 16.5-7.3 23.3-1.2 6.8 6.1 7.3 16.5 1.2 23.3-89.5 99.5-50.3 215-48.6 219.9 3 8.6-1.5 18-10 21-1.8 0.5-3.6 0.8-5.5 0.8zM266.2 283.5c0 11.4 9.2 20.6 20.6 20.6s20.6-9.2 20.6-20.6-9.2-20.6-20.6-20.6-20.6 9.2-20.6 20.6z" fill="#FFFFFF" p-id="4194"></path></svg>