<?xml version="1.0" standalone="no"?><!DOCTYPE svg PUBLIC "-//W3C//DTD SVG 1.1//EN" "http://www.w3.org/Graphics/SVG/1.1/DTD/svg11.dtd"><svg t="1748275031222" class="icon" viewBox="0 0 1024 1024" version="1.1" xmlns="http://www.w3.org/2000/svg" p-id="2335" xmlns:xlink="http://www.w3.org/1999/xlink" width="200" height="200"><path d="M893.9 559.4c0 203.9-181.2 377.2-385.2 377.2S123.5 763.4 123.5 559.4s181.2-361.3 385.2-361.3 385.2 157.4 385.2 361.3z" fill="#F57B4A" p-id="2336"></path><path d="M693.7 258.3c85.2 81.8 134.6 197.2 120.2 321.3-21 179.2-168.5 321.4-341.3 354.9 191.1 5.1 371.7-140.4 394.1-332.3 16.5-141.6-57.7-270.8-173-343.9z" fill="#DC5933" p-id="2337"></path><path d="M508.7 966.8c-105.4 0-211.2-44-290.1-120.7C139 768.8 93.4 664.3 93.4 559.4c0-105.8 44.7-205 125.9-279.4 77.8-71.2 183.3-112 289.4-112s211.6 40.9 289.4 112.1C879.3 354.4 924 453.6 924 559.4c0 104.8-45.7 209.3-125.2 286.7-78.9 76.7-184.6 120.7-290.1 120.7z m0-738.5c-192.4 0-355 151.7-355 331.2 0 184.9 165.9 347.1 355 347.1s355-162.2 355-347.1c0-179.6-162.5-331.2-355-331.2z" fill="#1A1A1A" p-id="2338"></path><path d="M509 413.5c-45.4 0-105.2-24.9-126.8-66.5-5.9-11.5-1.5-25.6 10-31.6 11.5-5.9 25.6-1.5 31.6 10 11.2 21.6 51.8 41.2 85.2 41.2 33.1 0 73.4-19.2 84.7-40.2 6.1-11.4 20.3-15.7 31.7-9.6 11.4 6.1 15.7 20.3 9.6 31.7-21.8 40.7-81.1 65-126 65z" fill="#1A1A1A" p-id="2339"></path><path d="M513.4 395c-10.9 0-20.7-7.7-22.9-18.8-18-89.5-12.4-271.5 138.3-320.1 12.3-4 25.5 2.8 29.5 15.1s-2.8 25.5-15.1 29.5C494.6 148.6 534.6 358.1 536.4 367c2.5 12.7-5.7 25-18.4 27.5-1.6 0.4-3.1 0.5-4.6 0.5z" fill="#1A1A1A" p-id="2340"></path><path d="M443.9 299.1c-14.9 17.3-42.1 31.8-74 20.7-86.6-30-105-124.1-108.5-151 47.7-2.4 153.2 1 185 42.3 24 30.9 16 66.5-2.5 88z" fill="#36B474" p-id="2341"></path><path d="M265.8 165.8c4.3 29.7 23.9 119.2 108 148.4 31.8 11 59.1-3.4 74-20.8 1.9-2.2 3.7-4.6 5.4-7.2L265.8 165.8z" fill="#229456" p-id="2342"></path><path d="M472 204.4c-50.1-65-210.9-53.3-217.7-52.9-4.7 0.4-7.8 3.7-7.6 7.8 0.1 1.3 2.1 34.5 18.3 72.8 21.9 52.2 59.5 88.9 108.8 106.1 35.8 12.6 72.8 3 96.8-24.8 2.3-2.7 4.5-5.7 6.6-8.8 10.6 5.3 16.5 14.5 35.6 18.6 4.7 0.9 8.9-0.6 10.5-3.8 0.4-0.9 0.7-1.9 0.7-3 0.2-5.2 1.6-10.9-4.5-12.2-15.8-3.4-25.2-10.7-34.3-15.2 9.9-24.8 8.9-55.9-13.2-84.6z m-35.1 84.8c-12.4 14.3-35.1 26.3-61.4 17.3-71.7-24.9-86.9-102.9-89.8-125.2 39.5-2 127 0.8 153.4 35 19.8 25.6 13.2 55.1-2.2 72.9z" fill="#1A1A1A" p-id="2343"></path><path d="M479.9 535.1c-1 0-2-0.1-3.1-0.3-128.6-22.5-170.9-85.6-172.6-88.3-5.3-8.1-3-19 5.2-24.3 8.1-5.3 18.9-3 24.2 5 0.7 1.1 37.7 53.4 149.3 72.9 9.6 1.7 15.9 10.8 14.3 20.3-1.5 8.7-8.9 14.7-17.3 14.7z" fill="#FFFFFF" p-id="2344"></path><path d="M273.1 393.5m-21 0a21 21 0 1 0 42 0 21 21 0 1 0-42 0Z" fill="#FFFFFF" p-id="2345"></path></svg>