<?xml version="1.0" standalone="no"?><!DOCTYPE svg PUBLIC "-//W3C//DTD SVG 1.1//EN" "http://www.w3.org/Graphics/SVG/1.1/DTD/svg11.dtd"><svg t="1748275040457" class="icon" viewBox="0 0 1024 1024" version="1.1" xmlns="http://www.w3.org/2000/svg" p-id="3185" xmlns:xlink="http://www.w3.org/1999/xlink" width="200" height="200"><path d="M405.2 232.5c34.6-6.3 70.3-10.5 107.1-10.5s72.4 3.1 107.1 10.5c-21-59.8-107.1-132.3-107.1-132.3s-86.1 72.5-107.1 132.3z" fill="#ADCE45" p-id="3186"></path><path d="M646 255.9l-30.2-6.4c-31.9-6.8-65.8-10.1-103.5-10.1-32.2 0-66.2 3.3-104 10.2l-29.3 5.3 9.9-28.1C411.2 163.2 497.5 90 501.2 87l11.1-9.4 11.1 9.4c3.7 3.1 90 76.3 112.3 139.8l10.3 29.1zM512.3 123.3c-18.3 16.7-54.7 51.9-76.6 86.8 26.9-3.6 52.2-5.4 76.6-5.4 27 0 52.2 1.6 76.3 4.9-22-34.7-58.1-69.7-76.3-86.3z" fill="#333333" p-id="3187"></path><path d="M232.3 619.6c-6.3-34.6-10.5-70.3-10.5-107.1 0-36.7 3.1-72.4 10.5-107.1-59.9 21-132.3 107.1-132.3 107.1s72.4 86.1 132.3 107.1z" fill="#ADCE45" p-id="3188"></path><path d="M254.7 645.8l-28.1-9.8C162.9 613.6 89.8 527.3 86.8 523.6l-9.4-11.1 9.4-11.1c3.1-3.7 76.2-90 139.8-112.3l29.1-10.2-6.4 30.1c-6.8 31.9-10.1 65.8-10.1 103.5 0 32.2 3.3 66.2 10.2 104l5.3 29.3zM123.1 512.5c16.6 18.3 51.9 54.7 86.8 76.7-3.6-26.9-5.4-52.2-5.4-76.7 0-27 1.6-52.3 4.9-76.3-34.8 22-69.7 58.1-86.3 76.3z" fill="#333333" p-id="3189"></path><path d="M619.4 792.5C584.7 798.8 549 803 512.3 803s-72.4-3.1-107.1-10.5c21 59.8 107.1 132.3 107.1 132.3s86.1-72.4 107.1-132.3z" fill="#ADCE45" p-id="3190"></path><path d="M512.3 947.4l-11.1-9.4c-3.7-3.1-90-76.3-112.3-139.8l-10.2-29.1 30.2 6.4c31.9 6.8 65.8 10.1 103.5 10.1 32.1 0 66.1-3.3 104-10.2l29.3-5.3-9.8 28.1C613.4 861.9 527.1 935 523.4 938l-11.1 9.4z m-76.3-132c22 34.7 58.2 69.7 76.3 86.3 18.3-16.6 54.7-51.9 76.7-86.8-27 3.7-52.3 5.4-76.7 5.4-27 0-52.2-1.6-76.3-4.9z" fill="#333333" p-id="3191"></path><path d="M792.3 405.4c6.3 34.6 10.5 70.3 10.5 107.1s-3.1 72.4-10.5 107.1c59.8-21 132.3-107.1 132.3-107.1s-72.5-86.1-132.3-107.1z" fill="#ADCE45" p-id="3192"></path><path d="M768.9 646.1l6.4-30.2c6.8-31.9 10.1-65.8 10.1-103.5 0-32.2-3.3-66.2-10.2-104l-5.3-29.3L798 389c63.5 22.3 136.7 108.6 139.8 112.3l9.4 11.1-9.4 11.1c-3.1 3.7-76.3 90-139.8 112.3l-29.1 10.3z m45.8-210.2c3.6 26.9 5.4 52.2 5.4 76.6 0 27-1.6 52.2-4.9 76.3 34.7-22 69.7-58.1 86.3-76.3-16.7-18.2-51.9-54.7-86.8-76.6z" fill="#333333" p-id="3193"></path><path d="M512.3 512.5m-285.8 0a285.8 285.8 0 1 0 571.6 0 285.8 285.8 0 1 0-571.6 0Z" fill="#FF5F9C" p-id="3194"></path><path d="M512.3 814.2c-80.6 0-156.3-31.4-213.3-88.3-57-57-88.3-132.7-88.3-213.3S242 356.2 299 299.2s132.7-88.3 213.3-88.3 156.3 31.4 213.3 88.3c57 57 88.3 132.7 88.3 213.3s-31.4 156.3-88.3 213.3c-57 57-132.7 88.4-213.3 88.4z m0-571.6c-148.8 0-269.9 121.1-269.9 269.9s121.1 269.9 269.9 269.9 269.9-121.1 269.9-269.9-121.1-269.9-269.9-269.9z" fill="#333333" p-id="3195"></path><path d="M512.3 512.5m-232.8 0a232.8 232.8 0 1 0 465.6 0 232.8 232.8 0 1 0-465.6 0Z" fill="#FFFDFE" p-id="3196"></path><path d="M531.4 677.1c0 10.2-5.7 15.5-12.7 15.5s-12.7-5.3-12.7-15.5 12.7-22.8 12.7-22.8 12.7 12.7 12.7 22.8zM611.1 645.5c5.1 8.8 2.8 16.3-3.2 19.8-6.1 3.5-13.6 1.7-18.7-7.1-5.1-8.8-0.4-26.1-0.4-26.1s17.2 4.7 22.3 13.4zM664.4 578.3c8.8 5.1 10.6 12.7 7.1 18.7-3.5 6.1-10.9 8.3-19.8 3.2-8.8-5.1-13.4-22.4-13.4-22.4s17.3-4.6 26.1 0.5zM676.9 493.4c10.2 0 15.5 5.7 15.5 12.7 0 7-5.3 12.7-15.5 12.7s-22.8-12.7-22.8-12.7 12.7-12.7 22.8-12.7zM645.3 413.7c8.8-5.1 16.3-2.8 19.8 3.2 3.5 6.1 1.7 13.6-7.1 18.7s-26.1 0.4-26.1 0.4 4.6-17.2 13.4-22.3zM578.1 360.4c5.1-8.8 12.7-10.6 18.7-7.1 6.1 3.5 8.3 10.9 3.2 19.8-5.1 8.8-22.4 13.4-22.4 13.4s-4.6-17.3 0.5-26.1zM493.2 347.9c0-10.2 5.7-15.5 12.7-15.5s12.7 5.3 12.7 15.5-12.7 22.8-12.7 22.8-12.7-12.7-12.7-22.8zM413.5 379.5c-5.1-8.8-2.8-16.3 3.2-19.8 6.1-3.5 13.6-1.7 18.7 7.1s0.4 26.1 0.4 26.1-17.3-4.6-22.3-13.4zM360.2 446.7c-8.8-5.1-10.6-12.7-7.1-18.7 3.5-6.1 10.9-8.3 19.8-3.2 8.8 5.1 13.4 22.4 13.4 22.4s-17.3 4.6-26.1-0.5zM347.7 531.6c-10.2 0-15.5-5.7-15.5-12.7s5.3-12.7 15.5-12.7 22.8 12.7 22.8 12.7-12.7 12.7-22.8 12.7zM379.3 611.3c-8.8 5.1-16.3 2.8-19.8-3.2-3.5-6.1-1.7-13.6 7.1-18.7 8.8-5.1 26.1-0.4 26.1-0.4s-4.7 17.3-13.4 22.3zM446.5 664.6c-5.1 8.8-12.7 10.6-18.7 7.1-6.1-3.5-8.3-10.9-3.2-19.8 5.1-8.8 22.4-13.4 22.4-13.4s4.6 17.3-0.5 26.1zM528.2 608.7c0 10.2-5.7 15.5-12.7 15.5s-12.7-5.3-12.7-15.5 12.7-22.8 12.7-22.8 12.7 12.7 12.7 22.8zM603.5 546.9c8.8 5.1 10.6 12.7 7.1 18.7-3.5 6.1-10.9 8.3-19.8 3.2-8.8-5.1-13.4-22.4-13.4-22.4s17.4-4.6 26.1 0.5zM587.7 450.7c8.8-5.1 16.3-2.8 19.8 3.2 3.5 6.1 1.7 13.6-7.1 18.7s-26.1 0.4-26.1 0.4 4.6-17.3 13.4-22.3zM496.4 416.3c0-10.2 5.7-15.5 12.7-15.5 7 0 12.7 5.3 12.7 15.5s-12.7 22.8-12.7 22.8-12.7-12.7-12.7-22.8zM421 478.2c-8.8-5.1-10.6-12.7-7.1-18.7 3.5-6.1 10.9-8.3 19.8-3.2s13.4 22.4 13.4 22.4-17.3 4.5-26.1-0.5zM436.9 574.4c-8.8 5.1-16.3 2.8-19.8-3.2-3.5-6.1-1.7-13.6 7.1-18.7 8.8-5.1 26.1-0.4 26.1-0.4s-4.6 17.2-13.4 22.3zM529.1 548.2c0 10.2-5.7 15.5-12.7 15.5s-12.7-5.3-12.7-15.5 12.7-22.8 12.7-22.8 12.7 12.6 12.7 22.8zM547.9 495.7c10.2 0 15.5 5.7 15.5 12.7s-5.3 12.7-15.5 12.7-22.8-12.7-22.8-12.7 12.7-12.7 22.8-12.7zM495.5 476.9c0-10.2 5.7-15.5 12.7-15.5s12.7 5.3 12.7 15.5-12.7 22.8-12.7 22.8-12.7-12.7-12.7-22.8zM476.6 529.3c-10.2 0-15.5-5.7-15.5-12.7s5.3-12.7 15.5-12.7 22.8 12.7 22.8 12.7-12.6 12.7-22.8 12.7z" fill="#434D4F" p-id="3197"></path></svg>