<?xml version="1.0" standalone="no"?><!DOCTYPE svg PUBLIC "-//W3C//DTD SVG 1.1//EN" "http://www.w3.org/Graphics/SVG/1.1/DTD/svg11.dtd"><svg t="1748275024970" class="icon" viewBox="0 0 1024 1024" version="1.1" xmlns="http://www.w3.org/2000/svg" p-id="1841" xmlns:xlink="http://www.w3.org/1999/xlink" width="200" height="200"><path d="M902 545.3c0 156.4-109.7 364.1-280.2 396.1-68.9 12.9-73.2-30.1-111-29-37.5 1.1-33.5 42.2-109.5 29.8-183.7-29.8-281.7-240-281.7-396.9 0-212.7 178.5-331 391.2-331S902 332.6 902 545.3z" fill="#E24160" p-id="1842"></path><path d="M427.5 968.6c-8.8 0-18.8-0.8-30.1-2.7-115.1-18.7-186.6-98.3-226.3-161.8-47.3-75.7-75.6-172.5-75.6-258.9 0-108.3 43.2-199.7 125-264.2 74.3-58.6 177.4-90.9 290.3-90.9s215.9 32.3 290.3 90.9c81.8 64.5 125 155.8 125 264.2 0 83.8-29.9 180.2-80 257.7-57.2 88.6-135.3 146.1-219.8 162-51.1 9.6-75.5-7.1-93.4-19.2-9.7-6.6-14.2-9.6-21.4-9.3-6.3 0.2-9.5 2.4-17.8 8.7-16.2 12.5-33.8 23.5-66.2 23.5z m83.3-730.2c-182.7 0-367.1 94.9-367.1 306.9 0 133.4 83.1 344.2 261.4 373.2 36.5 5.9 47.1-2.1 59.3-11.5 10.5-8 23.5-18 45.7-18.6 23-0.7 37.9 9.5 49.9 17.7 14.4 9.8 25.9 17.6 57.4 11.7C770.9 888.9 878 698.3 878 545.3c0-212-184.4-306.9-367.2-306.9z" fill="#1A1A1A" p-id="1843"></path><path d="M511.2 422.7c-46.7 0-108.2-25.6-130.4-68.4-6.1-11.8-1.5-26.3 10.3-32.4 11.8-6.1 26.3-1.5 32.4 10.3 11.5 22.2 53.2 42.3 87.6 42.3 34 0 75.5-19.7 87.1-41.4 6.3-11.7 20.9-16.1 32.6-9.9 11.7 6.3 16.1 20.9 9.9 32.6-22.4 41.9-83.4 66.9-129.5 66.9z" fill="#1A1A1A" p-id="1844"></path><path d="M513.3 403.6c-11.2 0-21.3-7.9-23.6-19.3-18.6-92-12.7-279.2 142.2-329.1 12.6-4.1 26.2 2.9 30.3 15.5 4.1 12.7-2.9 26.2-15.5 30.3C494 150.3 535.1 365.7 537 374.8c2.6 13-5.8 25.7-18.9 28.3-1.6 0.4-3.2 0.5-4.8 0.5z" fill="#1A1A1A" p-id="1845"></path><path d="M441.9 305c-15.3 17.8-43.3 32.7-76.1 21.2-89.1-30.9-107.9-127.6-111.5-155.3 49-2.4 157.6 1 190.3 43.5 24.5 31.9 16.3 68.5-2.7 90.6z" fill="#36B474" p-id="1846"></path><path d="M258.8 167.9c4.4 30.6 24.6 122.5 111.1 152.6 32.7 11.3 60.8-3.5 76.1-21.4 1.9-2.3 3.8-4.8 5.5-7.4L258.8 167.9z" fill="#229456" p-id="1847"></path><path d="M470.8 207.7c-51.5-66.9-216.9-54.9-223.8-54.4-4.9 0.4-8.1 3.8-7.8 8 0.1 1.4 2.2 35.4 18.8 74.9 22.6 53.7 61.2 91.4 111.8 109.1 36.8 12.9 74.9 3.1 99.6-25.5 2.4-2.8 4.6-5.9 6.8-9 10.9 5.4 17 14.9 36.6 19.1 4.9 1 9.1-0.6 10.8-3.9 0.4-0.9 0.7-2 0.7-3.1 0.2-5.3 1.7-11.2-4.7-12.5-16.2-3.4-25.9-11.1-35.3-15.7 10.3-25.6 9.2-57.6-13.5-87z m-36.1 87.1c-12.8 14.7-36 27-63.2 17.8-73.7-25.6-89.4-105.8-92.4-128.8 40.6-2 130.5 0.9 157.7 36 20.5 26.4 13.7 56.7-2.1 75z" fill="#1A1A1A" p-id="1848"></path><path d="M478.9 547.7c-1 0-2.1-0.1-3.1-0.3-132.2-23.2-175.7-88-177.5-90.7-5.4-8.4-3.1-19.5 5.3-25 8.3-5.4 19.4-3.1 24.9 5.2 0.8 1.1 38.8 54.9 153.5 75 9.8 1.7 16.4 11.1 14.7 20.9-1.5 8.7-9.2 14.9-17.8 14.9z" fill="#FFFFFF" p-id="1849"></path><path d="M266.3 402.1m-21.6 0a21.6 21.6 0 1 0 43.2 0 21.6 21.6 0 1 0-43.2 0Z" fill="#FFFFFF" p-id="1850"></path></svg>