<?xml version="1.0" standalone="no"?><!DOCTYPE svg PUBLIC "-//W3C//DTD SVG 1.1//EN" "http://www.w3.org/Graphics/SVG/1.1/DTD/svg11.dtd"><svg t="1748275035244" class="icon" viewBox="0 0 1024 1024" version="1.1" xmlns="http://www.w3.org/2000/svg" p-id="2674" xmlns:xlink="http://www.w3.org/1999/xlink" width="200" height="200"><path d="M855 411.2c-7 183.3-157.8 329.7-342.8 329.7S176.4 594.4 169.4 411.2h-58.6c7.1 215.6 184.1 388.3 401.4 388.3s394.4-172.6 401.4-388.3H855z" fill="#41AF76" p-id="2675"></path><path d="M512.2 825.6c-108.4 0-210.9-41.5-288.7-117-77.6-75.3-122.3-176.1-125.8-284-0.1-3.5 1.2-7 3.7-9.5s5.9-4 9.4-4h58.6c7 0 12.8 5.6 13.1 12.6 6.8 177.8 151.7 317.1 329.7 317.1s322.9-139.3 329.7-317.1c0.3-7 6.1-12.6 13.1-12.6h58.6c3.5 0 6.9 1.4 9.4 4s3.8 6 3.7 9.5c-3.5 107.9-48.2 208.7-125.8 284-77.8 75.5-180.4 117-288.7 117zM124.5 437.4c13.6 204.1 181.3 362.1 387.7 362.1s374.1-158 387.7-362.1h-32.5c-6.4 87.4-44.5 168.7-108 229.9-66.7 64.4-154.5 99.8-247.2 99.8S331.7 731.7 265 667.3C201.4 606 163.4 524.8 157 437.4h-32.5z" fill="" p-id="2676"></path><path d="M169.4 411.2c7 183.3 157.8 329.7 342.8 329.7S847.9 594.4 855 411.2H169.4z" fill="#E34261" p-id="2677"></path><path d="M803.5 421.6C787.5 573.8 690 699.4 559.1 747 718.3 721.5 841 586.5 847.3 421.6h-43.8z" fill="#B83957" p-id="2678"></path><path d="M512.2 763.2c-92.2 0-179.6-35.2-245.9-99.3-66.2-63.8-104.6-149.5-108.1-241.2-0.1-3 1-6 3.1-8.2s5-3.4 8.1-3.4H855c3 0 6 1.2 8.1 3.4 2.1 2.2 3.2 5.1 3.1 8.2-3.5 91.7-41.9 177.4-108.1 241.2-66.4 64.1-153.7 99.3-245.9 99.3z m-331-329.7c12.6 173.3 155.8 307.3 331 307.3s318.4-134.1 331-307.3h-662z" fill="" p-id="2679"></path><path d="M531.7 600.2c0 14.8-8.3 22.5-18.4 22.5-10.2 0-18.4-7.7-18.4-22.5s18.4-33.1 18.4-33.1 18.4 18.4 18.4 33.1zM634.9 559.6c7.4 12.8 4.1 23.6-4.7 28.7-8.8 5.1-19.8 2.5-27.2-10.2-7.4-12.8-0.6-37.9-0.6-37.9s25.1 6.6 32.5 19.4zM703.9 472.8c12.8 7.4 15.3 18.4 10.2 27.2-5.1 8.8-15.9 12.1-28.7 4.7-12.8-7.4-19.5-32.5-19.5-32.5s25.2-6.8 38 0.6zM423.5 582.2c-7.4 12.8-18.4 15.3-27.2 10.2-8.8-5.1-12.1-15.9-4.7-28.7s32.5-19.5 32.5-19.5 6.8 25.2-0.6 38zM338.9 512.4c-12.8 7.4-23.6 4.1-28.7-4.7s-2.5-19.8 10.2-27.2c12.8-7.4 37.9-0.6 37.9-0.6s-6.7 25.2-19.4 32.5z" fill="#434D4F" p-id="2680"></path><path d="M302 626.4c-3 0-6-1.1-8.3-3.4-58.9-59.3-75.4-115.4-76.1-117.7-1.8-6.2 1.8-12.6 8-14.4s12.6 1.8 14.4 8c0.2 0.5 15.8 53 70.2 107.7 4.5 4.6 4.5 11.9-0.1 16.5-2.2 2.1-5.2 3.3-8.1 3.3z" fill="#FFFFFF" p-id="2681"></path><path d="M213.1 467m-12.8 0a12.8 12.8 0 1 0 25.6 0 12.8 12.8 0 1 0-25.6 0Z" fill="#FFFFFF" p-id="2682"></path></svg>