<?xml version="1.0" standalone="no"?><!DOCTYPE svg PUBLIC "-//W3C//DTD SVG 1.1//EN" "http://www.w3.org/Graphics/SVG/1.1/DTD/svg11.dtd"><svg t="1748275033166" class="icon" viewBox="0 0 1024 1024" version="1.1" xmlns="http://www.w3.org/2000/svg" p-id="2502" xmlns:xlink="http://www.w3.org/1999/xlink" width="200" height="200"><path d="M511.9 228.6c-20-27.4-26.1-70.6 5.4-105.3C559.2 77 685.5 83.2 742.1 90.6c-6.8 31.8-37.7 142.3-144 169.8-39.1 10.3-70.1-9.7-86.2-31.8z" fill="#36B474" p-id="2503"></path><path d="M501.9 212.4c1.8 3.2 3.7 6.2 5.7 9.1 16.1 22.1 47.3 42 86.3 31.9C697 226.6 729.1 121.8 737.1 86.8L501.9 212.4z" fill="#229456" p-id="2504"></path><path d="M487.4 113c-29 32.1-33.3 69.1-23.9 99.7-11.3 4.5 34.4-0.8 15.2 1.6-7.5 0.9-13.5 6.6-13.8 12.8-0.1 1.2 0.2 2.5 0.6 3.6 1.6 4 6.5 6.2 12.2 5.6 23.2-3.1-19.4 1.1-6.2-4.2 2.2 3.9 4.5 7.7 7 11.1 26 35.5 69.3 50.5 113.2 38.9 60.5-15.8 108.8-55.9 140-116.1 22.9-44.2 28.6-83.6 28.8-85.2 0.7-4.9-2.7-9.2-8.3-10.1-8-1.1-198.7-30.5-264.8 42.3z m33.7 104.5c-16.6-22.7-21.7-58.5 4.5-87.2C560.4 92 665.1 97 712 103.2c-5.6 26.4-31.3 118-119.2 140.8-32.4 8.2-58.2-8.3-71.7-26.5z" fill="#333333" p-id="2505"></path><path d="M467.3 758.8c0 91.2-73.9 172.6-165.1 172.6S137.1 850 137.1 758.8s73.9-150 165.1-150 165.1 58.8 165.1 150z" fill="#E24361" p-id="2506"></path><path d="M443.4 701.6v1.2c0 106.2-79.3 201.9-182 216.4 7.9 1.3 15.9 1.9 24.1 1.9 91.2 0 165.1-81.4 165.1-172.6 0-16.8-2.5-32.5-7.2-46.9z" fill="#9C3C57" p-id="2507"></path><path d="M302.3 954c-101.7 0-187.7-89.4-187.7-195.2 0-100 78.9-172.6 187.7-172.6S490 658.8 490 758.8C489.9 864.6 404 954 302.3 954z m0-322.6c-83.9 0-142.5 52.4-142.5 127.4 0 81.3 65.2 150 142.5 150s142.5-68.7 142.5-150c-0.1-75-58.7-127.4-142.5-127.4z" fill="#333333" p-id="2508"></path><path d="M301.6 734.7c-34.7 0-58.3-12.2-70-36.1-4.6-9.3-0.7-20.6 8.6-25.2 9.3-4.6 20.6-0.7 25.2 8.6 3.4 7 10.6 15 36.1 15 29.9 0 35.3-12.8 37-17 4.1-9.6 15.1-14.1 24.7-10s14.1 15.1 10 24.7c-7.6 18.2-26.3 40-71.6 40z" fill="#333333" p-id="2509"></path><path d="M302.2 718.1c-9.3 0-17.4-6.9-18.7-16.4-0.2-1.7-5.4-43.4 5.5-94.3 14.7-68.7 51.7-121.6 106.9-153.1 106.6-60.8 32.6-209.8 31.8-211.3-4.7-9.3-1-20.6 8.3-25.3 9.3-4.7 20.6-1 25.3 8.3 0.9 1.8 22.6 45.1 28.6 98.1 8.2 73.8-17.8 130.2-75.3 162.9-111.2 63.4-93.9 208.4-93.7 209.9 1.3 10.3-6 19.8-16.3 21.1-0.7 0-1.5 0.1-2.4 0.1z" fill="#333333" p-id="2510"></path><path d="M880.4 758.8c0 91.2-73.9 172.6-165.1 172.6S550.2 850 550.2 758.8s73.9-150 165.1-150 165.1 58.8 165.1 150z" fill="#E24361" p-id="2511"></path><path d="M856.4 701.6v1.2c0 106.2-79.3 201.9-182 216.4 7.9 1.3 15.9 1.9 24.1 1.9 91.2 0 165.1-81.4 165.1-172.6 0-16.8-2.5-32.5-7.2-46.9z" fill="#9C3C57" p-id="2512"></path><path d="M715.3 954c-101.7 0-187.7-89.4-187.7-195.2 0-100 78.9-172.6 187.7-172.6S903 658.8 903 758.8C903 864.6 817 954 715.3 954z m0-322.6c-83.9 0-142.5 52.4-142.5 127.4 0 81.3 65.2 150 142.5 150s142.5-68.7 142.5-150c0-75-58.6-127.4-142.5-127.4z" fill="#333333" p-id="2513"></path><path d="M714.6 734.7c-34.7 0-58.3-12.2-70-36.1-4.6-9.3-0.7-20.6 8.6-25.2 9.3-4.6 20.6-0.7 25.2 8.6 3.4 7 10.6 15 36.1 15 29.9 0 35.3-12.8 37-17 4.1-9.6 15.1-14.1 24.7-10s14.1 15.1 10 24.7c-7.5 18.2-26.2 40-71.6 40z" fill="#333333" p-id="2514"></path><path d="M715.3 733.2c-0.6 0-1.2 0-1.9-0.1-10.4-1-17.9-10.2-16.9-20.6 0.2-2.2 19.9-224.3-109.7-371.8-73.4-83.5-181-128.1-319.9-132.6-10.4-0.3-18.6-9-18.2-19.4 0.3-10.4 9.1-18.6 19.4-18.2C418 175.3 534.8 224.3 615.3 316c73.6 83.9 102 188.2 112.8 261 11.7 78.4 6.2 136.7 6 139.2-1 9.7-9.2 17-18.8 17z" fill="#333333" p-id="2515"></path><path d="M265.6 782.4c-29.8 0-61.5-20.2-74.4-43.5-3-5.5-1.1-12.3 4.4-15.4 5.5-3 12.3-1.1 15.4 4.4 10.9 19.6 42.5 37.5 65.5 30.3 6-1.9 12.3 1.4 14.2 7.4 1.9 6-1.4 12.3-7.4 14.2-5.8 1.8-11.7 2.6-17.7 2.6z" fill="#FFFFFF" p-id="2516"></path><path d="M674.4 782.4c-29.8 0-61.5-20.2-74.4-43.5-3-5.5-1.1-12.3 4.4-15.4 5.5-3 12.3-1.1 15.4 4.4 10.9 19.6 42.5 37.5 65.5 30.3 6-1.9 12.3 1.4 14.2 7.4 1.9 6-1.4 12.3-7.4 14.2-5.8 1.8-11.7 2.6-17.7 2.6z" fill="#FFFFFF" p-id="2517"></path></svg>