<?xml version="1.0" standalone="no"?><!DOCTYPE svg PUBLIC "-//W3C//DTD SVG 1.1//EN" "http://www.w3.org/Graphics/SVG/1.1/DTD/svg11.dtd"><svg t="1748275029329" class="icon" viewBox="0 0 1024 1024" version="1.1" xmlns="http://www.w3.org/2000/svg" p-id="2173" xmlns:xlink="http://www.w3.org/1999/xlink" width="200" height="200"><path d="M815.7 182s62.4-4.2 87.4 25c0 0-33.3 106.3-41.6 144.7-10.6 49 17.5 96.9-2.5 150.7-36.7 98.4-111.2 240.3-367.7 312.4-58.6 16.5-101.7 36-225.5-0.9-65.2-19.4-76.8 9.6-120.5-8.3-17.3-7.1-60-49.5 7.9-82.7 0 0 315.4-97.3 408.9-205 85.3-98.2 166.4-186 224.6-186-0.1-0.2 33.1-29.3 29-149.9z" fill="#F8D63F" p-id="2174"></path><path d="M837.6 360.4c8.9-38.2 43.7-144 43.7-144-8.8-10.6-22.5-16.9-36.4-20.7-11.6 33.8-36 105.6-43.6 136.4-13 52.4 18.5 104.4-5.3 161.7C752.4 598.9 665 750 370.3 823.1c-15.6 3.9-30.3 7.9-45.4 11.4 60 7.3 94-5.4 135.7-16.4 257.5-68.3 334-209.1 372.2-307 20.9-53.5-6.6-101.9 4.8-150.7z" fill="#F7AC28" p-id="2175"></path><path d="M386.5 859.8c-32.8 0-73.1-5.8-127.9-22.1-28.6-8.5-43.6-6.2-59.5-3.6-16.9 2.7-36 5.7-63.4-5.5-17.9-7.3-43.7-31.3-44.7-61.4-0.6-18.7 7.7-45.5 51-66.8 1.2-0.6 2.4-1.1 3.6-1.4 3.1-1 309.6-96.5 397.4-197.5 86.5-99.6 164-183.1 229.9-193.5 6.9-12.7 20.4-47.8 17.7-125-0.5-13.5 9.8-24.9 23.3-25.8 7.7-0.5 75.8-3.9 108 33.6 5.6 6.5 7.4 15.5 4.9 23.7-0.3 1.1-33 105.7-41 142.5-3.8 17.4-1.2 36.4 1.5 56.4 3.9 29 8.3 61.9-5 97.7C843 616.4 760.3 765 498 838.7c-5 1.4-9.8 2.8-14.6 4.2-29.3 8.6-57.7 16.9-96.9 16.9z m-164.2-78c13.5 0 29.8 1.9 50.5 8.1 106.1 31.6 146 19.9 196.5 5.2 5-1.5 10-2.9 15.1-4.4 237.8-66.8 312.5-193.9 351-297.1 9-24.1 5.8-48.1 2.3-73.6-3.2-23.5-6.4-47.7-0.8-73.7 6.5-30.1 27.3-98.7 37.1-130.4-9.2-4.6-21.7-7.1-33.2-8.3-1 104.9-31.4 137.2-38 142.9-4.5 4-10.4 6.2-16.4 6.2-51.6 0-148.1 111.1-205.8 177.5C486.4 642.6 191.9 736.7 162.2 746c-14.9 7.6-21.6 15.2-21.5 19.4 0.2 6.5 9.7 15.3 13.7 17 14.4 5.9 22.3 4.7 36.6 2.4 9.2-1.5 19.1-3 31.3-3z" fill="#1A1A1A" p-id="2176"></path><path d="M324.9 750c-6.6 0-12.7-4.1-14.9-10.7-2.8-8.2 1.6-17.1 9.8-19.9 65.1-22.1 162.8-63.1 176.2-85 4.5-7.4 14.2-9.7 21.6-5.2 7.4 4.5 9.7 14.2 5.2 21.6-24.2 39.5-164.9 88.8-192.9 98.3-1.6 0.7-3.3 0.9-5 0.9z" fill="#FFFFFF" p-id="2177"></path><path d="M555.6 609.9m-19.6 0a19.6 19.6 0 1 0 39.2 0 19.6 19.6 0 1 0-39.2 0Z" fill="#FFFFFF" p-id="2178"></path></svg>